<svg xmlns="http://www.w3.org/2000/svg" width="21" height="21" viewBox="0 0.5 21 21"><path fill="#4083FB" d="M10.5.5C4.7.5 0 5.2 0 11s4.7 10.5 10.5 10.5S21 16.8 21 11 16.3.5 10.5.5zm4.9 2L19 6.1l-4.2 2.8-2.1-2.1 2.7-4.3zm-9.8 0l2.8 4.2-2.1 2.2L2 6.1l3.6-3.6zm0 17L2 15.9l4.2-2.8 2.1 2.1-2.7 4.3zM7 11c0-1.9 1.6-3.5 3.5-3.5S14 9.1 14 11s-1.6 3.5-3.5 3.5S7 12.9 7 11zm8.4 8.5l-2.8-4.2 2.1-2.1 4.2 2.8-3.5 3.5zM10.5.5C4.7.5 0 5.2 0 11s4.7 10.5 10.5 10.5S21 16.8 21 11 16.3.5 10.5.5zm0 19C5.8 19.5 2 15.7 2 11s3.8-8.5 8.5-8.5S19 6.3 19 11s-3.8 8.5-8.5 8.5zm0-13.5c-2.8 0-5 2.2-5 5s2.2 5 5 5 5-2.2 5-5-2.2-5-5-5zm0 8c-1.7 0-3-1.3-3-3s1.3-3 3-3 3 1.3 3 3-1.3 3-3 3z"/></svg>