<svg width="23" height="23" viewBox="0 0 23 23" xmlns="http://www.w3.org/2000/svg"><path d="M7.522 19.014c.468.248.963.454 1.478.612v1.376c0 1.1.898 1.998 2.005 1.998h.99c1.11 0 2.005-.894 2.005-1.998v-1.376c.515-.158 1.01-.364 1.478-.612l.973.973c.78.777 2.05.778 2.84-.005l.7-.7c.79-.786.79-2.05.01-2.83l-.97-.974c.25-.468.46-.963.61-1.478h1.38c1.1 0 2-.898 2-2.005v-.99C23 9.895 22.11 9 21.01 9h-1.38c-.158-.515-.364-1.01-.612-1.478l.973-.973c.78-.78.78-2.05-.01-2.84l-.7-.7c-.78-.79-2.05-.79-2.83-.01l-.97.97c-.47-.25-.97-.46-1.48-.61V2c0-1.102-.9-2-2.01-2H11C9.893 0 9 .894 9 1.998v1.376c-.515.158-1.01.364-1.478.612l-.973-.973c-.78-.777-2.05-.778-2.84.005l-.7.7c-.79.786-.79 2.05-.01 2.83l.97.974c-.25.468-.45.963-.61 1.478H2c-1.102 0-2 .898-2 2.005v.99C0 13.105.894 14 1.998 14h1.376c.158.515.364 1.01.612 1.478l-.973.973c-.777.78-.778 2.05.005 2.84l.7.7c.786.79 2.05.79 2.83.01l.974-.97zM11.5 15c1.933 0 3.5-1.567 3.5-3.5S13.433 8 11.5 8 8 9.567 8 11.5 9.567 15 11.5 15z" fill="#4083FB" fill-rule="evenodd"/></svg>